<svg width="83" height="85" viewBox="0 0 83 85" fill="none" xmlns="http://www.w3.org/2000/svg">
<path d="M23.121 76.6143L8.7786 21.6708C8.60518 21.0065 8.78468 20.2996 9.25405 19.7985L19.7122 8.63279C20.0903 8.22908 20.6188 8 21.1719 8L41.5 8.00003L61.8281 8C62.3813 8 62.9097 8.22908 63.2878 8.63279L73.7459 19.7985C74.2153 20.2996 74.3948 21.0065 74.2214 21.6708L59.8723 76.6402C59.6394 77.5322 58.832 78.1495 57.9102 78.135C54.7656 78.0856 47.535 77.973 42.3049 77.8994C36.5364 77.8183 28.4926 78.0172 25.116 78.1124C24.1822 78.1388 23.3569 77.5182 23.121 76.6143Z" stroke="black" stroke-width="8"/>
<path d="M8 25.464H75.5" stroke="black" stroke-width="8"/>
</svg>
